<svg xmlns="http://www.w3.org/2000/svg" version="1.1" xmlns:xlink="http://www.w3.org/1999/xlink" width="512" height="512" x="0" y="0" viewBox="0 0 500 500" style="enable-background:new 0 0 512 512" xml:space="preserve" class=""><g><path fill-rule="evenodd" d="M235.821 102.016c-12.966 19.352-20.849 45.305-21.896 72.866h-40.441c2.714-36.497 28.694-66.245 62.337-72.866m90.696 72.866h-40.436c-1.053-27.561-8.936-53.514-21.896-72.866 33.637 6.621 59.617 36.369 62.332 72.866m-62.407 85.565c12.998-19.341 20.902-45.31 21.96-72.882h40.447c-2.72 36.529-28.727 66.287-62.407 72.882m9.267-72.883h-46.753c1.144 27.604 9.62 53.215 23.377 70.777 13.761-17.561 22.232-43.172 23.376-70.777m0-12.682c-1.117-27.636-9.599-53.284-23.377-70.868-13.778 17.583-22.26 43.232-23.377 70.868zm-99.894 12.682h40.447c1.058 27.572 8.968 53.541 21.966 72.882-33.686-6.594-59.692-36.352-62.413-72.882M250 274.503c49.319 0 89.44-41.842 89.44-93.277S299.319 87.949 250 87.949s-89.44 41.842-89.44 93.277 40.121 93.277 89.44 93.277m43.606 107.867c-27.96 1.939-59.283 1.938-87.243 0-16.14-25.6-33.969-54.455-49.623-82.641 58.298 7.17 128.15 7.187 186.447.011-15.639 28.176-33.446 57.025-49.581 82.63M396 355.306c0-3.287-10.699-14.163-57.431-21.934-9.561 16.194-19.491 32.286-29.149 47.689 17.311-1.7 33.2-4.153 46.882-7.285 32.558-7.45 39.698-15.857 39.698-18.47m-115.029 47.058c-10.208 16.103-19.021 30.015-25.755 41.286-2.373 3.975-8.059 3.976-10.432 0-7.297-12.223-19.751-31.726-30.063-48.063 23.039 1.228 47.497 1.229 70.536 0-1.448 2.293-2.886 4.554-4.286 6.777m-137.272-28.588c13.676 3.132 29.55 5.585 46.839 7.274-9.663-15.392-19.593-31.473-29.165-47.667C114.684 341.154 104 352.019 104 355.306c0 2.613 7.14 11.02 39.699 18.47m-35.814-95.468c-40.319-9.679-54.621-21.309-54.621-28.32 0-7.113 14.27-18.54 53.91-28.144 5.639 18.513 15.029 39.608 26.418 61.691-9.075-1.555-17.674-3.297-25.707-5.227M250 53.365c-74.951 0-135.926 60.975-135.926 135.926 0 23.217 14.975 58.725 35.172 96.666 61.888 8.627 139.533 8.628 201.433.005 20.239-37.994 35.258-73.54 35.258-96.671 0-74.951-60.986-135.926-135.937-135.926m196.741 196.623c0 7.012-14.307 18.641-54.621 28.32-8.054 1.935-16.685 3.682-25.787 5.237 11.411-22.099 20.811-43.215 26.471-61.712 39.651 9.61 53.937 21.041 53.937 28.155m-51.665 40.661c42.702-10.262 64.348-23.943 64.348-40.661 0-16.643-21.319-30.223-63.348-40.415 1.641-7.343 2.544-14.147 2.544-20.282 0-81.947-66.672-148.608-148.619-148.608s-148.614 66.661-148.614 148.608c0 6.141.893 12.95 2.523 20.293-42.018 10.186-63.332 23.772-63.332 40.404 0 28.547 63.752 42.022 100.449 47.593a1053 1053 0 0 0 13.511 24.114c-30.715 5.537-63.214 15.643-63.214 33.611 0 27.941 78.125 36.864 107.718 39.234 11.199 17.719 26.415 41.475 34.857 55.609 7.301 12.224 24.905 12.225 32.206 0 8.424-14.104 23.65-37.931 34.825-55.599 29.593-2.376 107.76-11.305 107.76-39.245 0-17.979-32.542-28.09-63.284-33.622 4.65-8.065 9.171-16.119 13.495-24.093 12.947-1.96 25.08-4.28 36.175-6.941" clip-rule="evenodd" fill="#c4161c" opacity="1" data-original="#000000" class=""></path></g></svg>